<svg xmlns="http://www.w3.org/2000/svg" viewBox="0 0 40 36" fill="#273B69"><path d="m27.72 30 2.08 2c-2.8 2.4-7.92 4-13.8 4-8.82 0-16-3.58-16-8V8c0-4.42 7.16-8 16-8 5.9 0 11 1.6 13.8 4l-2.08 2-.72.8C25.3 5.54 21.56 4 16 4 8.26 4 4 7 4 8s4.26 4 12 4c2.74 0 5-.38 6.84-.92L24.76 13H19v2.84c-1 .1-2 .16-3 .16-4.78 0-9.06-1.06-12-2.72v5.62c2.6 1.9 7.16 3.1 12 3.1 1 0 2-.06 3-.16V23h5.76l-2 2 .24.22c-2.18.5-4.52.78-7 .78-4.56 0-8.78-.9-12-2.46V28c0 1 4.26 4 12 4 5.56 0 9.3-1.54 11-2.78l.72.78Zm2.12-21.84L27 11l5 5H22v4h10l-5 5 2.84 2.84L39.68 18l-9.84-9.84Z"/></svg>