<svg xmlns="http://www.w3.org/2000/svg" viewBox="0 0 40 36" fill="#273B69"><path d="m17.68 18-9.84 9.84L5 25l5-5H0v-4h10l-5-5 2.84-2.84L17.68 18ZM24 0C17.18 0 11.36 2.14 9.06 5.14L10 6l2.06 2.14C12 8.1 12 8 12 8c0-1 4.26-4 12-4s12 3 12 4-4.26 4-12 4c-5.24 0-8.84-1.38-10.64-2.56l6.24 6.24c1.4.2 2.88.32 4.4.32 4.78 0 9.06-1.06 12-2.72v5.62c-2.6 1.9-7.16 3.1-12 3.1-1.92 0-3.8-.2-5.52-.54l-3.3 3.28c2.64.8 5.64 1.26 8.82 1.26 4.56 0 8.78-.9 12-2.46V28c0 1-4.26 4-12 4s-12-3-12-4v-.08L10 30l-.92.86C11.38 33.86 17.2 36 24 36c8.82 0 16-3.58 16-8V8c0-4.42-7.16-8-16-8Z"/></svg>